<?xml version="1.0" encoding="UTF-8" standalone="no"?>
<svg
   xmlns:dc="http://purl.org/dc/elements/1.1/"
   xmlns:cc="http://creativecommons.org/ns#"
   xmlns:rdf="http://www.w3.org/1999/02/22-rdf-syntax-ns#"
   xmlns:svg="http://www.w3.org/2000/svg"
   xmlns="http://www.w3.org/2000/svg"
   xmlns:xlink="http://www.w3.org/1999/xlink"
   xmlns:sodipodi="http://sodipodi.sourceforge.net/DTD/sodipodi-0.dtd"
   xmlns:inkscape="http://www.inkscape.org/namespaces/inkscape"
   version="1.1"
   preserveAspectRatio="xMidYMid meet"
   viewBox="158.48000000000002 90.47999999999998 727.9049541284405 163.73100917431208"
   width="722.9"
   height="158.73"
   id="svg438"
   sodipodi:docname="git-amend.svg"
   inkscape:version="0.92.4 (5da689c313, 2019-01-14)">
  <metadata
     id="metadata442">
    <rdf:RDF>
      <cc:Work
         rdf:about="">
        <dc:format>image/svg+xml</dc:format>
        <dc:type
           rdf:resource="http://purl.org/dc/dcmitype/StillImage" />
      </cc:Work>
    </rdf:RDF>
  </metadata>
  <sodipodi:namedview
     pagecolor="#ffffff"
     bordercolor="#666666"
     borderopacity="1"
     objecttolerance="10"
     gridtolerance="10"
     guidetolerance="10"
     inkscape:pageopacity="0"
     inkscape:pageshadow="2"
     inkscape:window-width="1280"
     inkscape:window-height="939"
     id="namedview440"
     showgrid="false"
     inkscape:zoom="0.9600221"
     inkscape:cx="361.45001"
     inkscape:cy="79.364998"
     inkscape:window-x="0"
     inkscape:window-y="28"
     inkscape:window-maximized="1"
     inkscape:current-layer="g436" />
  <defs
     id="defs266">
    <path
       d="M680.58 246.41L679.7 248.81L678.42 248.81L681.78 240.33L683.14 240.33L686.5 248.81L685.22 248.81L684.42 246.41L680.58 246.41ZM684.02 245.29L682.58 241.45L681.06 245.29L684.02 245.29ZM688.18 243.05L689.22 243.05C689.22 243.53 689.22 243.8 689.22 243.85C689.62 243.21 690.34 242.89 690.98 242.89C691.7 242.89 692.42 243.21 692.74 244.01C693.22 243.21 693.94 242.89 694.66 242.89C695.7 242.89 696.66 243.61 696.66 245.05C696.66 245.3 696.66 246.56 696.66 248.81L695.54 248.81C695.54 246.65 695.54 245.45 695.54 245.21C695.54 244.49 695.14 243.93 694.34 243.93C693.54 243.93 692.98 244.57 692.98 245.37C692.98 245.61 692.98 246.78 692.98 248.89L691.86 248.89C691.86 246.73 691.86 245.53 691.86 245.29C691.86 244.57 691.46 244.01 690.66 244.01C689.86 244.01 689.3 244.65 689.3 245.45C689.3 245.68 689.3 246.83 689.3 248.89L688.18 248.89L688.18 243.05ZM701.54 248.97C700.02 248.97 698.66 247.85 698.66 245.85C698.66 244.01 699.94 242.81 701.46 242.81C703.22 242.81 704.26 244.01 704.26 245.85C704.26 245.87 704.26 245.98 704.26 246.17C701.58 246.17 700.08 246.17 699.78 246.17C699.78 247.21 700.58 247.93 701.54 247.93C702.5 247.93 702.98 247.45 703.14 246.73C703.21 246.76 703.53 246.89 704.1 247.13C703.25 248.36 702.4 248.97 701.54 248.97ZM701.38 243.85C700.42 243.85 699.86 244.57 699.78 245.29C700 245.29 701.06 245.29 702.98 245.29C702.61 244.33 702.08 243.85 701.38 243.85ZM706.18 248.81L706.18 243.05L707.3 243.05C707.3 243.53 707.3 243.8 707.3 243.85C707.7 243.13 708.42 242.89 709.06 242.89C710.42 242.89 711.14 243.85 711.14 245.21C711.14 245.46 711.14 246.68 711.14 248.89L710.02 248.89C710.02 246.83 710.02 245.68 710.02 245.45C710.02 244.65 709.7 244.01 708.66 244.01C707.78 244.01 707.3 244.73 707.3 245.61C707.3 245.82 707.3 246.89 707.3 248.81L706.18 248.81ZM715.78 248.97C714.1 248.97 713.06 247.61 713.06 245.93C713.06 244.33 714.18 242.89 715.78 242.89C716.82 242.89 717.38 243.37 717.54 243.85C717.54 243.6 717.54 242.35 717.54 240.09L718.66 240.09C718.66 244.65 718.66 247.18 718.66 247.69C718.66 248.25 718.74 248.65 718.74 248.73C718.63 248.73 717.74 248.73 717.62 248.73C717.62 248.57 717.54 248.33 717.54 247.93C717.3 248.49 716.66 248.97 715.78 248.97ZM717.54 245.85C717.54 244.65 716.9 243.85 715.86 243.85C714.82 243.85 714.18 244.65 714.18 245.85C714.18 247.05 714.82 247.93 715.86 247.93C716.9 247.93 717.54 247.05 717.54 245.85ZM723.62 248.97C722.1 248.97 720.74 247.85 720.74 245.85C720.74 244.01 722.02 242.81 723.54 242.81C725.3 242.81 726.34 244.01 726.34 245.85C726.34 245.87 726.34 245.98 726.34 246.17C723.75 246.17 722.31 246.17 722.02 246.17C722.02 247.21 722.82 247.93 723.78 247.93C724.74 247.93 725.22 247.45 725.38 246.73C725.44 246.76 725.7 246.89 726.18 247.13C725.33 248.36 724.48 248.97 723.62 248.97ZM723.46 243.85C722.5 243.85 721.94 244.57 721.86 245.29C722.08 245.29 723.14 245.29 725.06 245.29C724.69 244.33 724.16 243.85 723.46 243.85ZM730.58 248.97C728.9 248.97 727.86 247.61 727.86 245.93C727.86 244.33 728.98 242.89 730.58 242.89C731.62 242.89 732.18 243.37 732.34 243.85C732.34 243.6 732.34 242.35 732.34 240.09L733.46 240.09C733.46 244.65 733.46 247.18 733.46 247.69C733.46 248.25 733.54 248.65 733.54 248.73C733.43 248.73 732.54 248.73 732.42 248.73C732.42 248.57 732.34 248.33 732.34 247.93C732.1 248.49 731.46 248.97 730.58 248.97ZM732.34 245.85C732.34 244.65 731.7 243.85 730.66 243.85C729.62 243.85 728.98 244.65 728.98 245.85C728.98 247.05 729.54 247.93 730.66 247.93C731.7 247.93 732.34 247.05 732.34 245.85ZM745.22 245.05L740.9 245.05L740.9 248.81L739.7 248.81L739.7 240.33L740.9 240.33L740.9 243.93L745.22 243.93L745.22 240.33L746.42 240.33L746.42 248.81L745.22 248.81L745.22 245.05ZM750.34 240.81C750.34 241.29 750.02 241.61 749.54 241.61C749.06 241.61 748.74 241.21 748.74 240.81C748.74 240.41 749.14 240.01 749.54 240.01C750.02 240.01 750.34 240.33 750.34 240.81ZM748.98 243.05L750.1 243.05L750.1 248.81L748.98 248.81L748.98 243.05ZM754.5 248.01C755.14 248.01 755.46 247.69 755.46 247.21C755.46 246.89 755.22 246.57 754.74 246.49C754.65 246.47 753.88 246.28 753.78 246.25C752.9 246.09 752.34 245.45 752.34 244.65C752.34 243.69 753.3 242.81 754.42 242.81C756.02 242.81 756.5 243.85 756.58 244.33C756.49 244.37 755.72 244.69 755.62 244.73C755.54 244.41 755.3 243.77 754.42 243.77C753.86 243.77 753.46 244.17 753.46 244.57C753.46 244.89 753.7 245.21 754.1 245.29C754.2 245.32 754.97 245.51 755.06 245.53C756.1 245.77 756.66 246.41 756.66 247.21C756.66 248.01 755.94 248.97 754.58 248.97C752.98 248.97 752.34 247.93 752.26 247.29C752.32 247.27 752.62 247.16 753.14 246.97C753.52 247.66 753.97 248.01 754.5 248.01ZM761.46 243.05L761.46 244.09L760.18 244.09C760.18 245.92 760.18 246.93 760.18 247.13C760.18 247.69 760.42 247.93 760.98 247.93C761.14 247.93 761.3 247.93 761.46 247.85C761.46 247.95 761.46 248.72 761.46 248.81C761.38 248.81 761.06 248.89 760.66 248.89C759.7 248.89 759.06 248.25 759.06 247.21C759.06 247 759.06 245.93 759.06 244.01L757.94 244.01L757.94 242.97C758.14 242.97 758.24 242.97 758.26 242.97C758.9 242.97 759.14 242.57 759.14 242.09C759.14 242.03 759.14 241.71 759.14 241.13L760.18 241.13L760.18 243.05L761.46 243.05ZM765.94 248.97C764.18 248.97 762.98 247.69 762.98 245.93C762.98 244.17 764.18 242.89 765.94 242.89C767.7 242.89 768.9 244.17 768.9 245.93C768.9 247.69 767.7 248.97 765.94 248.97ZM765.94 243.85C764.98 243.85 764.18 244.57 764.18 245.93C764.18 247.29 764.98 248.01 765.94 248.01C766.9 247.93 767.7 247.21 767.7 245.93C767.7 244.57 766.82 243.85 765.94 243.85ZM773.62 244.17C772.66 244.17 772.02 244.65 772.02 245.93C772.02 246.12 772.02 247.08 772.02 248.81L770.9 248.81L770.9 243.05L772.02 243.05C772.02 243.68 772.02 244.02 772.02 244.09C772.42 243.21 773.14 242.97 773.78 242.97C773.81 242.97 773.94 242.97 774.18 242.97L774.18 244.17C773.84 244.17 773.66 244.17 773.62 244.17ZM777.78 248.17L775.3 243.05L776.58 243.05L778.34 247.05L780.1 243.05L781.3 243.05L777.54 251.21L776.34 251.21L777.78 248.17Z"
       id="d343MI1aJW" />
    <path
       d="M845.06 171.52L845.06 152.72M853.7 164.56L844.98 173.28L836.34 164.56"
       id="a2a9eOntqi" />
    <path
       d="M806.58 96L883.38 96L883.38 136L806.58 136L806.58 96Z"
       id="f3D43H0hgZ" />
    <path
       d="M833.54 114.16L830.66 120.8L829.62 120.8L826.74 114.16L826.74 120.8L825.54 120.8L825.54 112.32L827.14 112.32L830.18 119.28L833.22 112.32L834.82 112.32L834.82 120.8L833.54 120.8L833.54 114.16ZM840.26 117.28C840.58 117.2 840.74 117.04 840.74 116.88C840.74 116.32 840.34 115.84 839.46 115.84C838.66 115.84 838.26 116.32 838.18 117.04C838.07 117.02 837.18 116.82 837.06 116.8C837.22 115.68 838.18 114.96 839.46 114.96C841.22 114.96 841.86 115.92 841.86 117.04C841.86 117.33 841.86 119.63 841.86 119.92C841.86 120.4 841.94 120.72 841.94 120.88C841.83 120.88 840.94 120.88 840.82 120.88C840.82 120.72 840.74 120.48 840.74 120.08C840.5 120.48 839.94 121.04 838.9 121.04C837.7 121.04 836.98 120.24 836.98 119.28C836.98 118.24 837.7 117.68 838.74 117.52C838.74 117.52 840.11 117.3 840.26 117.28ZM840.74 118.08C839.69 118.22 839.1 118.3 838.98 118.32C838.5 118.4 838.18 118.64 838.18 119.2C838.18 119.6 838.5 120 839.14 120C839.94 120.08 840.74 119.6 840.74 118.32C840.74 118.29 840.74 118.21 840.74 118.08ZM846.02 120C846.66 120 846.98 119.68 846.98 119.2C846.98 118.88 846.74 118.56 846.26 118.48C846.17 118.46 845.4 118.26 845.3 118.24C844.42 118.08 843.86 117.44 843.86 116.64C843.86 115.68 844.82 114.8 845.94 114.8C847.54 114.8 848.02 115.84 848.1 116.32C848.01 116.36 847.24 116.68 847.14 116.72C847.06 116.4 846.82 115.76 845.94 115.76C845.38 115.76 844.98 116.16 844.98 116.56C844.98 116.88 845.22 117.2 845.62 117.28C845.72 117.3 846.49 117.5 846.58 117.52C847.62 117.76 848.18 118.4 848.18 119.2C848.18 120 847.46 120.96 846.1 120.96C844.5 120.96 843.86 119.92 843.78 119.28C843.84 119.26 844.14 119.15 844.66 118.96C845.04 119.65 845.49 120 846.02 120ZM852.98 115.04L852.98 116.08L851.7 116.08C851.7 117.9 851.7 118.92 851.7 119.12C851.7 119.68 851.94 119.92 852.5 119.92C852.66 119.92 852.82 119.92 852.98 119.84C852.98 119.94 852.98 120.7 852.98 120.8C852.9 120.8 852.58 120.88 852.18 120.88C851.22 120.88 850.58 120.24 850.58 119.2C850.58 118.99 850.58 117.92 850.58 116L849.54 116L849.54 114.96C849.74 114.96 849.84 114.96 849.86 114.96C850.5 114.96 850.74 114.56 850.74 114.08C850.74 114.02 850.74 113.7 850.74 113.12L851.78 113.12L851.78 115.04L852.98 115.04ZM857.46 121.04C855.94 121.04 854.58 119.92 854.58 117.92C854.58 116.08 855.86 114.88 857.38 114.88C859.14 114.88 860.18 116.08 860.18 117.92C860.18 117.94 860.18 118.05 860.18 118.24C857.59 118.24 856.15 118.24 855.86 118.24C855.86 119.28 856.66 120 857.62 120C858.58 120 859.06 119.52 859.22 118.8C859.28 118.83 859.54 118.96 860.02 119.2C859.17 120.43 858.32 121.04 857.46 121.04ZM857.3 115.92C856.34 115.92 855.78 116.64 855.7 117.36C855.92 117.36 856.98 117.36 858.9 117.36C858.53 116.4 858 115.92 857.3 115.92ZM864.82 116.16C863.86 116.16 863.22 116.64 863.22 117.92C863.22 118.11 863.22 119.07 863.22 120.8L862.1 120.8L862.1 115.04L863.22 115.04C863.22 115.66 863.22 116.01 863.22 116.08C863.62 115.2 864.34 114.96 864.98 114.96C865.01 114.96 865.14 114.96 865.38 114.96L865.38 116.16C865.04 116.16 864.86 116.16 864.82 116.16Z"
       id="brOY1Pz2I" />
    <path
       d="M598.02 206.08L828.26 206.08"
       id="n8vk4ArAiK" />
    <path
       d="M581.22 189.28C571.95 189.28 564.42 196.8 564.42 206.08C564.42 215.36 571.95 222.88 581.22 222.88C590.5 222.88 598.02 215.36 598.02 206.08C598.02 196.8 590.5 189.28 581.22 189.28Z"
       id="cLw4sZN0b" />
    <path
       d="M669.14 189.28C659.87 189.28 652.34 196.8 652.34 206.08C652.34 215.36 659.87 222.88 669.14 222.88C678.42 222.88 685.94 215.36 685.94 206.08C685.94 196.8 678.42 189.28 669.14 189.28Z"
       id="hjfHr7HRA" />
    <path
       d="M757.06 189.28C747.79 189.28 740.26 196.8 740.26 206.08C740.26 215.36 747.79 222.88 757.06 222.88C766.34 222.88 773.86 215.36 773.86 206.08C773.86 196.8 766.34 189.28 757.06 189.28Z"
       id="banI0HbCw" />
    <path
       d="M845.06 189.28C835.79 189.28 828.26 196.8 828.26 206.08C828.26 215.36 835.79 222.88 845.06 222.88C854.34 222.88 861.86 215.36 861.86 206.08C861.86 196.8 854.34 189.28 845.06 189.28Z"
       id="au3FjdUkc" />
    <path
       d="M839.78 206.08L850.18 206.08M841.38 202.4L848.66 209.76M848.66 202.4L841.38 209.76M844.98 200.88L844.98 211.28"
       id="c2eiIdHltD" />
    <path
       d="M659.38 118.56C659.38 119.44 658.82 120.16 658.1 120.4C659.06 120.64 659.62 121.52 659.62 122.48C659.62 123.84 658.58 124.8 656.98 124.8C656.79 124.8 655.8 124.8 654.02 124.8L654.02 116.32L656.82 116.32C658.53 116.91 659.38 117.65 659.38 118.56ZM658.26 118.64C658.26 117.84 657.7 117.28 656.66 117.28C656.57 117.28 656.09 117.28 655.22 117.28L655.22 120L656.74 120C657.76 119.63 658.26 119.17 658.26 118.64ZM658.5 122.4C658.5 121.6 658.02 121.04 656.98 121.04C656.87 121.04 656.31 121.04 655.3 121.04L655.3 123.76L656.9 123.76C657.97 123.39 658.5 122.93 658.5 122.4ZM664.42 120.16C663.46 120.16 662.82 120.64 662.82 121.92C662.82 122.11 662.82 123.07 662.82 124.8L661.7 124.8L661.7 119.04L662.82 119.04C662.82 119.66 662.82 120.01 662.82 120.08C663.22 119.2 663.94 118.96 664.58 118.96C664.61 118.96 664.74 118.96 664.98 118.96L664.98 120.16C664.64 120.16 664.46 120.16 664.42 120.16ZM669.7 121.2C670.02 121.12 670.18 120.96 670.18 120.8C670.18 120.24 669.78 119.76 668.9 119.76C668.1 119.76 667.7 120.24 667.62 120.96C667.52 120.94 666.69 120.74 666.58 120.72C666.66 119.6 667.7 118.88 668.98 118.88C670.74 118.88 671.38 119.84 671.38 120.96C671.38 121.25 671.38 123.55 671.38 123.84C671.38 124.32 671.46 124.64 671.46 124.8C671.34 124.8 670.31 124.8 670.18 124.8C670.18 124.64 670.1 124.4 670.1 124C669.86 124.4 669.3 124.96 668.26 124.96C667.06 124.96 666.34 124.16 666.34 123.2C666.34 122.16 667.14 121.6 668.1 121.44C668.42 121.39 669.54 121.22 669.7 121.2ZM670.1 122.08C669.05 122.22 668.46 122.3 668.34 122.32C667.86 122.4 667.46 122.64 667.46 123.2C667.46 123.6 667.86 124 668.42 124C669.38 124 670.1 123.52 670.1 122.32C670.1 122.29 670.1 122.21 670.1 122.08ZM673.62 124.8L673.62 119.04L674.74 119.04C674.74 119.52 674.74 119.79 674.74 119.84C675.14 119.12 675.86 118.88 676.5 118.88C677.86 118.88 678.58 119.84 678.58 121.2C678.58 121.45 678.58 122.67 678.58 124.88L677.38 124.88C677.38 122.82 677.38 121.67 677.38 121.44C677.38 120.64 677.06 120 676.02 120C675.14 120 674.66 120.72 674.66 121.6C674.66 121.81 674.66 122.88 674.66 124.8L673.62 124.8ZM683.22 124.96C681.54 124.96 680.5 123.6 680.5 121.92C680.5 120.32 681.62 118.88 683.22 118.88C684.26 118.88 684.82 119.36 684.98 119.84C684.98 119.59 684.98 118.34 684.98 116.08L686.1 116.08C686.1 120.64 686.1 123.17 686.1 123.68C686.1 124.24 686.18 124.64 686.18 124.72C686.07 124.72 685.18 124.72 685.06 124.72C685.06 124.56 684.98 124.32 684.98 123.92C684.74 124.48 684.1 124.96 683.22 124.96ZM684.98 121.84C684.98 120.64 684.34 119.84 683.3 119.84C682.26 119.84 681.62 120.64 681.62 121.84C681.62 123.04 682.26 123.92 683.3 123.92C684.34 123.92 684.98 123.04 684.98 121.84ZM693.54 117.84L693.54 124.8L692.34 124.8L692.34 116.32L693.94 116.32L698.18 122.88L698.18 116.32L699.38 116.32L699.38 124.8L698.1 124.8L693.54 117.84ZM704.42 124.96C702.9 124.96 701.54 123.84 701.54 121.84C701.54 120 702.82 118.8 704.34 118.8C706.1 118.8 707.14 120 707.14 121.84C707.14 121.86 707.14 121.97 707.14 122.16C704.55 122.16 703.11 122.16 702.82 122.16C702.82 123.2 703.62 123.92 704.58 123.92C705.54 123.92 706.02 123.44 706.18 122.72C706.24 122.75 706.5 122.88 706.98 123.12C706.13 124.35 705.28 124.96 704.42 124.96ZM704.26 119.84C703.3 119.84 702.74 120.56 702.66 121.28C702.88 121.28 703.94 121.28 705.86 121.28C705.49 120.32 704.96 119.84 704.26 119.84ZM714.9 123.28L716.18 118.96L717.38 118.96L715.54 124.72L714.34 124.72L712.82 120.32L711.3 124.72L710.1 124.72L708.18 118.96L709.38 118.96L710.66 123.28L712.18 118.96L713.38 118.96L714.9 123.28ZM726.5 116.08C728.42 116.08 729.78 117.12 730.26 118.8C730.15 118.84 729.26 119.16 729.14 119.2C728.82 117.92 727.86 117.2 726.5 117.2C724.98 117.2 723.46 118.32 723.46 120.56C723.46 122.8 724.9 123.92 726.5 123.92C727.94 123.92 728.9 123.04 729.22 121.92C729.33 121.96 730.16 122.28 730.26 122.32C729.78 123.92 728.5 125.04 726.5 125.04C724.34 124.96 722.26 123.36 722.26 120.48C722.26 117.6 724.34 116.08 726.5 116.08ZM734.58 124.88C732.82 124.88 731.62 123.6 731.62 121.84C731.62 120.08 732.82 118.8 734.58 118.8C736.34 118.8 737.54 120.08 737.54 121.84C737.54 123.6 736.34 124.88 734.58 124.88ZM734.58 119.76C733.62 119.76 732.82 120.48 732.82 121.84C732.82 123.2 733.62 123.92 734.58 123.92C735.54 123.92 736.34 123.2 736.34 121.84C736.34 120.48 735.54 119.76 734.58 119.76ZM739.54 119.04L740.58 119.04C740.58 119.52 740.58 119.79 740.58 119.84C740.98 119.2 741.7 118.88 742.34 118.88C743.06 118.88 743.78 119.2 744.1 120C744.58 119.2 745.3 118.88 746.02 118.88C747.06 118.88 748.02 119.6 748.02 121.04C748.02 121.29 748.02 122.54 748.02 124.8L746.9 124.8C746.9 122.64 746.9 121.44 746.9 121.2C746.9 120.48 746.5 119.92 745.7 119.92C744.9 119.92 744.34 120.56 744.34 121.36C744.34 121.59 744.34 122.77 744.34 124.88L743.22 124.88C743.22 122.72 743.22 121.52 743.22 121.28C743.22 120.56 742.82 120 742.02 120C741.22 120 740.66 120.64 740.66 121.44C740.66 121.67 740.66 122.82 740.66 124.88L739.54 124.88L739.54 119.04ZM750.42 119.04L751.46 119.04C751.46 119.52 751.46 119.79 751.46 119.84C751.86 119.2 752.58 118.88 753.22 118.88C753.94 118.88 754.66 119.2 754.98 120C755.46 119.2 756.18 118.88 756.9 118.88C757.94 118.88 758.9 119.6 758.9 121.04C758.9 121.29 758.9 122.54 758.9 124.8L757.78 124.8C757.78 122.64 757.78 121.44 757.78 121.2C757.78 120.48 757.38 119.92 756.58 119.92C755.78 119.92 755.22 120.56 755.22 121.36C755.22 121.59 755.22 122.77 755.22 124.88L754.1 124.88C754.1 122.72 754.1 121.52 754.1 121.28C754.1 120.56 753.7 120 752.9 120C752.1 120 751.54 120.64 751.54 121.44C751.54 121.67 751.54 122.82 751.54 124.88L750.42 124.88L750.42 119.04ZM762.66 116.8C762.66 117.28 762.26 117.6 761.86 117.6C761.38 117.6 761.06 117.2 761.06 116.8C761.06 116.32 761.38 116 761.86 116C762.34 116 762.66 116.32 762.66 116.8ZM761.3 119.04L762.42 119.04L762.42 124.8L761.3 124.8L761.3 119.04ZM767.7 118.96L767.7 120L766.42 120C766.42 121.82 766.42 122.84 766.42 123.04C766.42 123.6 766.66 123.84 767.22 123.84C767.38 123.84 767.54 123.84 767.7 123.76C767.7 123.86 767.7 124.62 767.7 124.72C767.62 124.72 767.3 124.8 766.9 124.8C765.94 124.8 765.3 124.16 765.3 123.12C765.3 122.91 765.3 121.84 765.3 119.92L764.18 119.92L764.18 118.88C764.38 118.88 764.48 118.88 764.5 118.88C765.14 118.88 765.38 118.48 765.38 118C765.38 117.94 765.38 117.62 765.38 117.04L766.42 117.04L766.42 118.96L767.7 118.96ZM771.7 123.92C772.34 123.92 772.66 123.6 772.66 123.12C772.66 122.8 772.42 122.48 771.94 122.4C771.85 122.38 771.08 122.18 770.98 122.16C770.1 122 769.54 121.36 769.54 120.56C769.54 119.6 770.5 118.72 771.62 118.72C773.22 118.72 773.7 119.76 773.78 120.24C773.69 120.28 772.92 120.6 772.82 120.64C772.74 120.32 772.5 119.68 771.62 119.68C771.06 119.68 770.66 120.08 770.66 120.48C770.66 120.8 770.9 121.12 771.3 121.2C771.4 121.22 772.17 121.42 772.26 121.44C773.3 121.68 773.86 122.32 773.86 123.12C773.86 123.92 773.14 124.88 771.78 124.88C770.18 124.88 769.54 123.84 769.46 123.2C769.52 123.18 769.82 123.07 770.34 122.88C770.72 123.57 771.17 123.92 771.7 123.92Z"
       id="a112LbJgA" />
    <path
       d="M636.02 122.64L646.42 122.64M637.54 118.96L644.9 126.24M644.9 118.96L637.54 126.24M641.22 117.44L641.22 127.84"
       id="aFS1WXtwk" />
    <path
       d="M271.98 234.69L273.18 234.69L273.18 243.17L271.98 243.17L271.98 234.69ZM275.82 243.17L275.82 237.41L276.94 237.41C276.94 237.89 276.94 238.16 276.94 238.21C277.34 237.49 278.06 237.25 278.7 237.25C280.06 237.25 280.78 238.21 280.78 239.49C280.78 239.74 280.78 240.96 280.78 243.17L279.66 243.17C279.66 241.11 279.66 239.96 279.66 239.73C279.66 238.93 279.34 238.29 278.3 238.29C277.42 238.29 276.94 239.01 276.94 239.89C276.94 240.11 276.94 241.2 276.94 243.17L275.82 243.17ZM284.54 235.25C284.54 235.73 284.14 236.05 283.74 236.05C283.26 236.05 282.94 235.65 282.94 235.25C282.94 234.77 283.26 234.45 283.74 234.45C284.22 234.45 284.54 234.85 284.54 235.25ZM283.18 237.41L284.3 237.41L284.3 243.17L283.18 243.17L283.18 237.41ZM289.58 237.41L289.58 238.45L288.3 238.45C288.3 240.28 288.3 241.29 288.3 241.49C288.3 242.05 288.54 242.29 289.1 242.29C289.26 242.29 289.42 242.29 289.58 242.21C289.58 242.31 289.58 243.08 289.58 243.17C289.5 243.17 289.18 243.25 288.78 243.25C287.82 243.25 287.18 242.61 287.18 241.57C287.18 241.36 287.18 240.29 287.18 238.37L286.06 238.37L286.06 237.33C286.25 237.33 286.36 237.33 286.38 237.33C287.02 237.33 287.26 236.93 287.26 236.45C287.26 236.39 287.26 236.07 287.26 235.49L288.3 235.49L288.3 237.41L289.58 237.41ZM293.02 235.25C293.02 235.73 292.62 236.05 292.22 236.05C291.74 236.05 291.42 235.65 291.42 235.25C291.42 234.77 291.82 234.45 292.22 234.45C292.7 234.45 293.02 234.85 293.02 235.25ZM291.66 237.41L292.78 237.41L292.78 243.17L291.66 243.17L291.66 237.41ZM298.3 239.65C298.62 239.57 298.78 239.41 298.78 239.25C298.78 238.69 298.38 238.21 297.5 238.21C296.7 238.21 296.3 238.69 296.22 239.41C296.12 239.39 295.29 239.2 295.18 239.17C295.34 238.05 296.3 237.33 297.58 237.33C299.34 237.33 299.98 238.29 299.98 239.41C299.98 239.7 299.98 242 299.98 242.29C299.98 242.77 300.06 243.09 300.06 243.25C299.95 243.25 299.05 243.25 298.94 243.25C298.94 243.09 298.86 242.85 298.86 242.45C298.62 242.85 298.06 243.41 297.02 243.41C295.82 243.41 295.1 242.61 295.1 241.65C294.94 240.61 295.74 240.05 296.7 239.89C297.02 239.84 298.14 239.68 298.3 239.65ZM298.7 240.45C297.65 240.6 297.06 240.68 296.94 240.69C296.46 240.77 296.14 241.01 296.14 241.57C296.14 241.97 296.54 242.37 297.1 242.37C297.98 242.45 298.7 241.97 298.7 240.69C298.7 240.66 298.7 240.58 298.7 240.45ZM302.22 234.53L303.34 234.53L303.34 243.25L302.22 243.25L302.22 234.53ZM315.1 239.41L310.78 239.41L310.78 243.17L309.58 243.17L309.58 234.69L310.78 234.69L310.78 238.29L315.1 238.29L315.1 234.69L316.3 234.69L316.3 243.17L315.1 243.17L315.1 239.41ZM320.22 235.25C320.22 235.73 319.82 236.05 319.42 236.05C318.94 236.05 318.62 235.65 318.62 235.25C318.62 234.77 319.02 234.45 319.42 234.45C319.9 234.45 320.22 234.85 320.22 235.25ZM318.86 237.41L319.98 237.41L319.98 243.17L318.86 243.17L318.86 237.41ZM324.38 242.37C325.02 242.37 325.34 242.05 325.34 241.57C325.34 241.25 325.1 240.93 324.62 240.85C324.53 240.83 323.76 240.64 323.66 240.61C322.78 240.45 322.22 239.81 322.22 239.01C322.22 238.05 323.18 237.17 324.3 237.17C325.9 237.17 326.38 238.21 326.46 238.69C326.37 238.73 325.6 239.05 325.5 239.09C325.42 238.77 325.18 238.13 324.3 238.13C323.74 238.13 323.34 238.53 323.34 238.93C323.34 239.25 323.58 239.57 323.98 239.65C324.08 239.68 324.85 239.87 324.94 239.89C325.98 240.13 326.54 240.77 326.54 241.57C326.54 242.37 325.82 243.33 324.46 243.33C322.86 243.33 322.22 242.29 322.14 241.65C322.2 241.63 322.49 241.52 323.02 241.33C323.4 242.02 323.85 242.37 324.38 242.37ZM331.34 237.41L331.34 238.45L330.06 238.45C330.06 240.28 330.06 241.29 330.06 241.49C330.06 242.05 330.3 242.29 330.86 242.29C331.02 242.29 331.18 242.29 331.34 242.21C331.34 242.31 331.34 243.08 331.34 243.17C331.26 243.17 330.94 243.25 330.54 243.25C329.58 243.25 328.94 242.61 328.94 241.57C328.94 241.36 328.94 240.29 328.94 238.37L327.82 238.37L327.82 237.33C328.01 237.33 328.12 237.33 328.14 237.33C328.78 237.33 329.02 236.93 329.02 236.45C329.02 236.39 329.02 236.07 329.02 235.49L330.06 235.49L330.06 237.41L331.34 237.41ZM335.82 243.33C334.06 243.33 332.86 242.05 332.86 240.29C332.86 238.53 334.06 237.25 335.82 237.25C337.58 237.25 338.78 238.53 338.78 240.29C338.78 242.05 337.58 243.33 335.82 243.33ZM335.9 238.21C334.94 238.21 334.14 238.93 334.14 240.29C334.14 241.65 334.94 242.37 335.9 242.37C336.78 242.37 337.66 241.65 337.66 240.29C337.66 238.93 336.78 238.21 335.9 238.21ZM343.58 238.53C342.62 238.53 341.98 239.01 341.98 240.29C341.98 240.48 341.98 241.44 341.98 243.17L340.86 243.17L340.86 237.41L341.98 237.41C341.98 238.04 341.98 238.38 341.98 238.45C342.38 237.57 343.1 237.33 343.74 237.33C343.77 237.33 343.9 237.33 344.14 237.33L344.14 238.53C343.8 238.53 343.61 238.53 343.58 238.53ZM347.66 242.53L345.18 237.41L346.46 237.41L348.22 241.41L349.98 237.41L351.18 237.41L347.42 245.57L346.22 245.57L347.66 242.53Z"
       id="emJhp1ic7" />
    <path
       d="M441.12 168L441.12 149.2M449.76 161.04L441.04 169.68L432.4 161.04"
       id="e320dgb6j" />
    <path
       d="M402.64 92.48L479.44 92.48L479.44 132.48L402.64 132.48L402.64 92.48Z"
       id="c8SGr9kHz" />
    <path
       d="M429.6 110.64L426.72 117.28L425.68 117.28L422.8 110.64L422.8 117.28L421.6 117.28L421.6 108.8L423.2 108.8L426.24 115.76L429.28 108.8L430.88 108.8L430.88 117.28L429.6 117.28L429.6 110.64ZM436.32 113.68C436.64 113.6 436.8 113.44 436.8 113.28C436.8 112.72 436.4 112.24 435.52 112.24C434.72 112.24 434.32 112.72 434.24 113.44C434.13 113.42 433.23 113.22 433.12 113.2C433.28 112.08 434.24 111.36 435.52 111.36C437.28 111.36 437.92 112.32 437.92 113.44C437.92 113.73 437.92 116.03 437.92 116.32C437.92 116.8 438 117.12 438 117.28C437.89 117.28 436.99 117.28 436.88 117.28C436.88 117.12 436.8 116.88 436.8 116.48C436.56 116.88 436 117.44 434.96 117.44C433.76 117.44 433.04 116.64 433.04 115.68C433.04 114.64 433.76 114.08 434.8 113.92C435.1 113.87 436.17 113.7 436.32 113.68ZM436.8 114.56C435.74 114.7 435.16 114.78 435.04 114.8C434.56 114.88 434.24 115.12 434.24 115.68C434.24 116.08 434.56 116.48 435.2 116.48C436 116.48 436.8 116.08 436.8 114.8C436.8 114.77 436.8 114.69 436.8 114.56ZM442.08 116.4C442.72 116.4 443.04 116.08 443.04 115.6C443.04 115.28 442.8 114.96 442.32 114.88C442.22 114.86 441.46 114.66 441.36 114.64C440.48 114.48 439.92 113.84 439.92 113.04C439.92 112.08 440.88 111.2 442 111.2C443.6 111.2 444.08 112.24 444.16 112.72C444.06 112.76 443.3 113.08 443.2 113.12C443.12 112.8 442.88 112.16 442 112.16C441.44 112.16 441.04 112.56 441.04 112.96C441.04 113.28 441.28 113.6 441.68 113.68C441.78 113.7 442.54 113.9 442.64 113.92C443.68 114.16 444.24 114.8 444.24 115.6C444.24 116.4 443.52 117.36 442.16 117.36C440.56 117.36 439.92 116.32 439.84 115.68C439.9 115.66 440.19 115.55 440.72 115.36C441.09 116.05 441.55 116.4 442.08 116.4ZM449.04 111.52L449.04 112.56L447.76 112.56C447.76 114.38 447.76 115.4 447.76 115.6C447.76 116.16 448 116.4 448.56 116.4C448.72 116.4 448.88 116.4 449.04 116.32C449.04 116.42 449.04 117.18 449.04 117.28C448.96 117.28 448.64 117.36 448.24 117.36C447.28 117.36 446.64 116.72 446.64 115.68C446.64 115.47 446.64 114.4 446.64 112.48L445.6 112.48L445.6 111.44C445.79 111.44 445.9 111.44 445.92 111.44C446.56 111.44 446.8 111.04 446.8 110.56C446.8 110.5 446.8 110.18 446.8 109.6L447.84 109.6L447.84 111.52L449.04 111.52ZM453.52 117.44C452 117.44 450.64 116.32 450.64 114.32C450.64 112.48 451.92 111.28 453.44 111.28C455.2 111.28 456.24 112.48 456.24 114.32C456.24 114.35 456.24 114.48 456.24 114.72C453.65 114.72 452.21 114.72 451.92 114.72C451.92 115.76 452.72 116.48 453.68 116.48C454.64 116.48 455.12 116 455.28 115.28C455.33 115.3 455.6 115.41 456.08 115.6C455.23 116.83 454.37 117.44 453.52 117.44ZM453.36 112.32C452.4 112.32 451.84 113.04 451.76 113.76C451.97 113.76 453.04 113.76 454.96 113.76C454.59 112.8 454.05 112.32 453.36 112.32ZM460.88 112.64C459.92 112.64 459.28 113.12 459.28 114.4C459.28 114.59 459.28 115.55 459.28 117.28L458.16 117.28L458.16 111.52L459.28 111.52C459.28 112.14 459.28 112.49 459.28 112.56C459.68 111.68 460.4 111.44 461.04 111.44C461.07 111.44 461.2 111.44 461.44 111.44L461.44 112.64C461.1 112.64 460.91 112.64 460.88 112.64Z"
       id="b2pxoT22m" />
    <path
       d="M194.08 202.48L424.32 202.48"
       id="cF1Bnc7J" />
    <path
       d="M177.28 185.68C168 185.68 160.48 193.2 160.48 202.48C160.48 211.76 168 219.28 177.28 219.28C186.56 219.28 194.08 211.76 194.08 202.48C194.08 193.2 186.56 185.68 177.28 185.68Z"
       id="e3qQcSkX7I" />
    <path
       d="M265.2 185.68C255.92 185.68 248.4 193.2 248.4 202.48C248.4 211.76 255.92 219.28 265.2 219.28C274.48 219.28 282 211.76 282 202.48C282 193.2 274.48 185.68 265.2 185.68Z"
       id="c1c6fl4bJt" />
    <path
       d="M353.12 185.68C343.84 185.68 336.32 193.2 336.32 202.48C336.32 211.76 343.84 219.28 353.12 219.28C362.4 219.28 369.92 211.76 369.92 202.48C369.92 193.2 362.4 185.68 353.12 185.68Z"
       id="d4zU78xsPC" />
    <path
       d="M441.12 185.68C431.84 185.68 424.32 193.2 424.32 202.48C424.32 211.76 431.84 219.28 441.12 219.28C450.4 219.28 457.92 211.76 457.92 202.48C457.92 193.2 450.4 185.68 441.12 185.68Z"
       id="bUftrsFej" />
  </defs>
  <g
     id="g436">
    <g
       id="g274"
       transform="translate(2.1725966,-4.872849)"
       style="fill:#000000">
      <use
         xlink:href="#d343MI1aJW"
         opacity="1"
         fill="#999999"
         fill-opacity="1"
         id="use268"
         x="0"
         y="0"
         width="100%"
         height="100%"
         style="fill:#000000" />
      <g
         id="g272"
         style="fill:#000000">
        <use
           xlink:href="#d343MI1aJW"
           opacity="1"
           fill-opacity="0"
           stroke="#000000"
           stroke-width="1"
           stroke-opacity="0"
           id="use270"
           x="0"
           y="0"
           width="100%"
           height="100%"
           style="fill:#000000" />
      </g>
    </g>
    <g
       id="g282">
      <use
         xlink:href="#a2a9eOntqi"
         opacity="1"
         fill="#000000"
         fill-opacity="0"
         id="use276" />
      <g
         id="g280">
        <use
           xlink:href="#a2a9eOntqi"
           opacity="1"
           fill-opacity="0"
           stroke="#404040"
           stroke-width="4"
           stroke-opacity="1"
           id="use278" />
      </g>
    </g>
    <g
       id="g290">
      <use
         xlink:href="#f3D43H0hgZ"
         opacity="1"
         fill="#b3e3ff"
         fill-opacity="1"
         id="use284" />
      <g
         id="g288">
        <use
           xlink:href="#f3D43H0hgZ"
           opacity="1"
           fill-opacity="0"
           stroke="#404040"
           stroke-width="4"
           stroke-opacity="1"
           id="use286" />
      </g>
    </g>
    <g
       id="g298">
      <use
         xlink:href="#brOY1Pz2I"
         opacity="1"
         fill="#404040"
         fill-opacity="1"
         id="use292" />
      <g
         id="g296">
        <use
           xlink:href="#brOY1Pz2I"
           opacity="1"
           fill-opacity="0"
           stroke="#000000"
           stroke-width="1"
           stroke-opacity="0"
           id="use294" />
      </g>
    </g>
    <g
       id="g306">
      <use
         xlink:href="#n8vk4ArAiK"
         opacity="1"
         fill="#ffffff"
         fill-opacity="1"
         id="use300" />
      <g
         id="g304">
        <use
           xlink:href="#n8vk4ArAiK"
           opacity="1"
           fill-opacity="0"
           stroke="#404040"
           stroke-width="4"
           stroke-opacity="1"
           id="use302" />
      </g>
    </g>
    <g
       id="g314">
      <use
         xlink:href="#cLw4sZN0b"
         opacity="1"
         fill="#ffffff"
         fill-opacity="1"
         id="use308" />
      <g
         id="g312">
        <use
           xlink:href="#cLw4sZN0b"
           opacity="1"
           fill-opacity="0"
           stroke="#404040"
           stroke-width="4"
           stroke-opacity="1"
           id="use310" />
      </g>
    </g>
    <g
       id="g322">
      <use
         xlink:href="#hjfHr7HRA"
         opacity="1"
         fill="#ffffff"
         fill-opacity="1"
         id="use316" />
      <g
         id="g320">
        <use
           xlink:href="#hjfHr7HRA"
           opacity="1"
           fill-opacity="0"
           stroke="#404040"
           stroke-width="4"
           stroke-opacity="1"
           id="use318" />
      </g>
    </g>
    <g
       id="g330">
      <use
         xlink:href="#banI0HbCw"
         opacity="1"
         fill="#ffffff"
         fill-opacity="1"
         id="use324" />
      <g
         id="g328">
        <use
           xlink:href="#banI0HbCw"
           opacity="1"
           fill-opacity="0"
           stroke="#404040"
           stroke-width="4"
           stroke-opacity="1"
           id="use326" />
      </g>
    </g>
    <g
       id="g338">
      <use
         xlink:href="#au3FjdUkc"
         opacity="1"
         fill="#59afe1"
         fill-opacity="1"
         id="use332" />
      <g
         id="g336">
        <use
           xlink:href="#au3FjdUkc"
           opacity="1"
           fill-opacity="0"
           stroke="#404040"
           stroke-width="4"
           stroke-opacity="1"
           id="use334" />
      </g>
    </g>
    <g
       id="g346">
      <use
         xlink:href="#c2eiIdHltD"
         opacity="1"
         fill="#ffffff"
         fill-opacity="1"
         id="use340" />
      <g
         id="g344">
        <use
           xlink:href="#c2eiIdHltD"
           opacity="1"
           fill-opacity="0"
           stroke="#404040"
           stroke-width="4"
           stroke-opacity="1"
           id="use342" />
      </g>
    </g>
    <g
       id="g354">
      <use
         xlink:href="#a112LbJgA"
         opacity="1"
         fill="#404040"
         fill-opacity="1"
         id="use348" />
      <g
         id="g352">
        <use
           xlink:href="#a112LbJgA"
           opacity="1"
           fill-opacity="0"
           stroke="#000000"
           stroke-width="1"
           stroke-opacity="0"
           id="use350" />
      </g>
    </g>
    <g
       id="g362">
      <use
         xlink:href="#aFS1WXtwk"
         opacity="1"
         fill="#ffffff"
         fill-opacity="1"
         id="use356" />
      <g
         id="g360">
        <use
           xlink:href="#aFS1WXtwk"
           opacity="1"
           fill-opacity="0"
           stroke="#404040"
           stroke-width="4"
           stroke-opacity="1"
           id="use358" />
      </g>
    </g>
    <g
       id="g370">
      <use
         xlink:href="#emJhp1ic7"
         opacity="1"
         fill="#999999"
         fill-opacity="1"
         id="use364"
         style="fill:#000000" />
      <g
         id="g368">
        <use
           xlink:href="#emJhp1ic7"
           opacity="1"
           fill-opacity="0"
           stroke="#000000"
           stroke-width="1"
           stroke-opacity="0"
           id="use366" />
      </g>
    </g>
    <g
       id="g378">
      <use
         xlink:href="#e320dgb6j"
         opacity="1"
         fill="#000000"
         fill-opacity="0"
         id="use372" />
      <g
         id="g376">
        <use
           xlink:href="#e320dgb6j"
           opacity="1"
           fill-opacity="0"
           stroke="#404040"
           stroke-width="4"
           stroke-opacity="1"
           id="use374" />
      </g>
    </g>
    <g
       id="g386">
      <use
         xlink:href="#c8SGr9kHz"
         opacity="1"
         fill="#b3e3ff"
         fill-opacity="1"
         id="use380" />
      <g
         id="g384">
        <use
           xlink:href="#c8SGr9kHz"
           opacity="1"
           fill-opacity="0"
           stroke="#404040"
           stroke-width="4"
           stroke-opacity="1"
           id="use382" />
      </g>
    </g>
    <g
       id="g394">
      <use
         xlink:href="#b2pxoT22m"
         opacity="1"
         fill="#404040"
         fill-opacity="1"
         id="use388" />
      <g
         id="g392">
        <use
           xlink:href="#b2pxoT22m"
           opacity="1"
           fill-opacity="0"
           stroke="#000000"
           stroke-width="1"
           stroke-opacity="0"
           id="use390" />
      </g>
    </g>
    <g
       id="g402">
      <use
         xlink:href="#cF1Bnc7J"
         opacity="1"
         fill="#ffffff"
         fill-opacity="1"
         id="use396" />
      <g
         id="g400">
        <use
           xlink:href="#cF1Bnc7J"
           opacity="1"
           fill-opacity="0"
           stroke="#404040"
           stroke-width="4"
           stroke-opacity="1"
           id="use398" />
      </g>
    </g>
    <g
       id="g410">
      <use
         xlink:href="#e3qQcSkX7I"
         opacity="1"
         fill="#ffffff"
         fill-opacity="1"
         id="use404" />
      <g
         id="g408">
        <use
           xlink:href="#e3qQcSkX7I"
           opacity="1"
           fill-opacity="0"
           stroke="#404040"
           stroke-width="4"
           stroke-opacity="1"
           id="use406" />
      </g>
    </g>
    <g
       id="g418">
      <use
         xlink:href="#c1c6fl4bJt"
         opacity="1"
         fill="#ffffff"
         fill-opacity="1"
         id="use412" />
      <g
         id="g416">
        <use
           xlink:href="#c1c6fl4bJt"
           opacity="1"
           fill-opacity="0"
           stroke="#404040"
           stroke-width="4"
           stroke-opacity="1"
           id="use414" />
      </g>
    </g>
    <g
       id="g426">
      <use
         xlink:href="#d4zU78xsPC"
         opacity="1"
         fill="#ffffff"
         fill-opacity="1"
         id="use420" />
      <g
         id="g424">
        <use
           xlink:href="#d4zU78xsPC"
           opacity="1"
           fill-opacity="0"
           stroke="#404040"
           stroke-width="4"
           stroke-opacity="1"
           id="use422" />
      </g>
    </g>
    <g
       id="g434">
      <use
         xlink:href="#bUftrsFej"
         opacity="1"
         fill="#59afe1"
         fill-opacity="1"
         id="use428" />
      <g
         id="g432">
        <use
           xlink:href="#bUftrsFej"
           opacity="1"
           fill-opacity="0"
           stroke="#404040"
           stroke-width="4"
           stroke-opacity="1"
           id="use430" />
      </g>
    </g>
    <text
       xml:space="preserve"
       style="font-style:normal;font-variant:normal;font-weight:normal;font-stretch:normal;font-size:41.26025772px;line-height:1.25;font-family:Roboto;-inkscape-font-specification:'Roboto, Normal';font-variant-ligatures:normal;font-variant-caps:normal;font-variant-numeric:normal;font-feature-settings:normal;text-align:start;letter-spacing:0px;word-spacing:0px;writing-mode:lr-tb;text-anchor:start;fill:#000000;fill-opacity:1;stroke:none;stroke-width:1.03150642"
       x="407.46512"
       y="241.31746"
       id="text314"><tspan
         sodipodi:role="line"
         id="tspan312"
         x="407.46512"
         y="241.31746"
         style="font-size:22.00547028px;stroke-width:1.03150642">9bc6e</tspan></text>
    <text
       id="text318"
       y="246.68976"
       x="811.46252"
       style="font-style:normal;font-variant:normal;font-weight:normal;font-stretch:normal;font-size:41.26025772px;line-height:1.25;font-family:Roboto;-inkscape-font-specification:'Roboto, Normal';font-variant-ligatures:normal;font-variant-caps:normal;font-variant-numeric:normal;font-feature-settings:normal;text-align:start;letter-spacing:0px;word-spacing:0px;writing-mode:lr-tb;text-anchor:start;fill:#000000;fill-opacity:1;stroke:none;stroke-width:1.03150642"
       xml:space="preserve"><tspan
         style="font-size:22.00547028px;stroke-width:1.03150642"
         y="246.68976"
         x="811.46252"
         id="tspan316"
         sodipodi:role="line">e951c</tspan></text>
  </g>
</svg>
