<?xml version="1.0" standalone="no"?>
<!DOCTYPE svg PUBLIC "-//W3C//DTD SVG 20010904//EN"
 "http://www.w3.org/TR/2001/REC-SVG-20010904/DTD/svg10.dtd">
<svg version="1.0" xmlns="http://www.w3.org/2000/svg"
 width="872.000000pt" height="872.000000pt" viewBox="0 0 872.000000 872.000000"
 preserveAspectRatio="xMidYMid meet">
<metadata>
Created by potrace 1.11, written by Peter Selinger 2001-2013
</metadata>
<g transform="translate(0.000000,872.000000) scale(0.100000,-0.100000)"
fill="#000000" stroke="none">
<path d="M5525 8358 c-4 -10 -5 -23 -2 -30 2 -7 0 -23 -4 -35 -5 -12 -4 -25 1
-28 5 -3 5 -18 0 -33 -4 -16 -4 -36 1 -45 6 -9 5 -18 0 -22 -6 -3 -7 -15 -2
-28 4 -12 4 -35 1 -52 -3 -16 -3 -40 1 -52 5 -12 4 -25 -1 -28 -5 -3 -6 -15
-1 -28 12 -31 -5 -71 -26 -63 -9 4 -32 9 -52 12 -20 3 -58 9 -86 14 -108 20
-134 23 -280 35 -38 3 -92 8 -120 10 -55 5 -417 6 -480 1 -22 -2 -76 -7 -120
-11 -44 -4 -96 -9 -115 -11 -19 -1 -35 -3 -35 -4 0 -1 -13 -3 -30 -5 -16 -2
-41 -6 -55 -8 -14 -3 -41 -8 -60 -11 -59 -10 -84 -15 -106 -20 -12 -2 -37 -7
-55 -10 -19 -3 -49 -10 -68 -16 -19 -5 -37 -8 -39 -5 -3 2 -17 -2 -33 -10 -16
-9 -32 -15 -36 -14 -4 1 -10 0 -13 -1 -7 -2 -31 -8 -50 -12 -8 -2 -21 -7 -28
-12 -7 -4 -16 -5 -19 -2 -3 3 -11 1 -18 -4 -6 -5 -21 -11 -33 -13 -12 -2 -25
-6 -28 -10 -4 -4 -18 -7 -31 -7 -13 0 -23 -4 -23 -8 0 -4 -8 -8 -18 -9 -18 -1
-201 -68 -269 -98 -219 -97 -554 -280 -619 -337 -11 -10 -24 -18 -28 -18 -5 0
-25 -13 -46 -30 -21 -16 -41 -30 -44 -30 -4 0 -17 -9 -29 -21 -12 -12 -33 -28
-47 -38 -28 -18 -28 -18 -155 -124 -79 -66 -295 -275 -381 -368 -108 -120
-336 -430 -398 -544 -9 -16 -25 -43 -36 -60 -31 -49 -175 -344 -210 -430 -95
-238 -177 -520 -192 -662 -1 -7 -6 -13 -11 -13 -5 0 -7 -6 -4 -14 3 -7 1 -31
-3 -52 -10 -41 -22 -133 -29 -210 -1 -12 -61 -26 -61 -15 0 5 -66 6 -80 1 -3
-1 -18 -1 -35 0 -72 5 -175 4 -175 -1 0 -3 -12 -4 -28 -1 -15 2 -24 1 -20 -3
4 -4 3 -15 -2 -24 -5 -10 -5 -23 0 -31 5 -8 4 -22 -1 -32 -5 -10 -6 -18 -1
-18 5 0 6 -23 2 -50 -4 -28 -3 -53 2 -56 4 -3 3 -14 -2 -25 -6 -10 -7 -19 -3
-19 4 0 8 -22 8 -50 0 -27 -2 -50 -5 -50 -7 0 -4 -89 3 -97 4 -3 2 -14 -4 -24
-5 -11 -6 -19 -2 -19 4 0 8 -22 8 -50 0 -27 -2 -50 -5 -50 -7 0 -4 -86 4 -99
4 -6 4 -11 -1 -11 -4 0 -2 -4 6 -9 8 -5 24 -6 35 -2 12 4 32 6 46 4 14 -1 89
-3 168 -4 98 -1 142 -5 143 -13 0 -6 2 -18 3 -26 2 -8 7 -44 11 -80 4 -36 9
-74 11 -85 2 -11 7 -37 10 -58 8 -49 12 -72 14 -72 1 0 3 -12 5 -27 2 -16 6
-37 10 -47 8 -26 16 -62 19 -83 1 -10 5 -21 9 -24 4 -4 7 -15 7 -24 0 -19 32
-129 63 -215 12 -33 22 -63 23 -67 1 -5 3 -10 4 -13 1 -3 3 -8 5 -12 5 -21 27
-74 54 -135 12 -26 21 -50 21 -53 0 -3 16 -37 35 -76 19 -39 35 -77 35 -85 0
-8 5 -14 10 -14 6 0 10 -9 10 -20 0 -11 5 -20 10 -20 6 0 10 -6 10 -14 0 -8 7
-22 16 -30 8 -9 13 -16 10 -16 -7 0 65 -123 77 -131 5 -3 8 -10 8 -15 -1 -8
105 -176 130 -208 5 -6 37 -49 71 -96 35 -47 76 -100 93 -118 16 -19 33 -40
37 -47 24 -41 280 -302 393 -400 44 -38 82 -72 83 -77 2 -4 10 -8 18 -8 8 0
14 -4 14 -8 0 -5 21 -24 48 -43 26 -18 54 -39 62 -46 35 -30 186 -134 203
-140 9 -3 17 -9 17 -14 0 -5 7 -9 15 -9 8 0 15 -3 15 -8 0 -4 14 -13 30 -20
17 -8 36 -19 43 -26 6 -6 23 -17 37 -23 14 -7 57 -31 95 -53 39 -22 80 -44 93
-50 12 -5 60 -27 105 -49 70 -34 150 -70 167 -76 8 -3 63 -25 85 -34 41 -17
284 -100 310 -106 11 -3 81 -20 155 -40 74 -19 151 -37 170 -39 19 -3 35 -5
35 -6 0 -2 23 -6 108 -20 40 -6 86 -14 102 -17 30 -5 57 -7 175 -18 36 -3 88
-8 115 -10 107 -11 468 -5 610 10 39 4 88 9 110 10 22 2 40 4 40 5 0 1 14 3
30 5 17 2 71 11 120 20 129 24 130 24 130 -2 0 -12 3 -25 7 -28 3 -4 3 -19 -2
-33 -4 -15 -4 -37 1 -49 5 -13 4 -25 -2 -28 -5 -4 -7 -11 -3 -16 3 -6 6 -33 5
-60 -1 -27 -1 -72 -2 -100 -1 -27 1 -53 5 -56 3 -3 1 -14 -5 -24 -5 -11 -6
-19 -2 -20 4 0 17 -3 28 -5 11 -2 28 -4 37 -4 10 0 28 0 40 -1 13 0 30 0 38 0
61 2 155 -1 159 -4 2 -3 10 0 17 6 8 7 14 7 19 -1 4 -6 12 -7 24 -1 9 5 23 6
30 1 8 -4 25 -5 40 -1 28 7 90 6 98 -3 3 -2 16 -1 29 4 16 6 24 6 24 -1 0 -6
6 -6 18 0 10 5 24 6 31 1 8 -4 25 -5 40 0 14 4 32 5 40 2 8 -3 12 1 9 9 -3 8
-1 26 3 41 4 16 3 30 -2 33 -5 4 -5 13 0 23 6 11 6 24 0 34 -6 10 -6 19 0 22
6 4 6 18 1 36 -5 18 -5 30 0 30 6 0 6 10 0 25 -6 15 -6 27 0 30 5 3 6 15 1 27
-4 12 -5 37 -1 55 5 18 4 36 -1 39 -5 3 -5 12 0 23 6 10 6 23 1 31 -5 8 -6 18
-3 24 9 14 9 76 0 76 -5 0 -5 5 -1 11 3 6 6 33 5 60 -1 46 5 54 32 50 4 0 7 3
7 9 0 5 6 10 14 10 8 0 38 12 68 28 30 15 61 28 69 30 8 2 18 7 24 12 5 4 51
29 100 55 105 56 120 64 160 89 17 11 46 29 65 41 52 33 194 128 200 135 3 3
18 14 35 24 31 20 45 31 74 56 9 8 35 28 56 45 143 107 395 356 546 540 100
122 279 373 279 392 0 3 11 21 26 40 14 18 22 33 18 33 -4 0 0 8 9 18 22 24
157 288 157 307 0 8 5 15 10 15 6 0 10 8 10 18 0 10 6 26 13 37 7 11 28 61 46
110 18 50 38 104 44 120 7 17 11 33 9 38 -1 4 3 7 10 7 6 0 9 3 5 6 -3 3 -1
18 5 33 5 14 12 35 14 46 7 27 10 37 17 55 6 15 36 129 43 163 2 10 5 26 8 35
7 25 16 72 21 109 2 18 6 40 9 50 7 22 17 78 21 118 27 229 29 269 29 495 -1
208 -6 334 -18 406 -2 16 -7 52 -11 79 -8 68 -13 100 -27 165 -6 30 -12 64
-14 75 -6 43 -48 206 -75 295 -29 92 -88 254 -119 325 -15 33 -28 65 -30 70
-6 20 -60 140 -70 155 -5 8 -25 44 -43 80 -47 88 -71 131 -104 182 -15 24 -36
59 -46 78 -11 19 -22 37 -26 40 -4 3 -28 37 -54 75 -26 39 -58 83 -72 99 -14
16 -25 32 -25 35 0 3 -10 17 -23 31 -12 14 -42 50 -67 80 -109 134 -435 460
-460 460 -4 0 -15 9 -26 21 -22 24 -250 199 -259 199 -4 0 -24 13 -44 29 -35
27 -121 81 -239 149 -31 18 -127 67 -212 108 -195 95 -185 89 -186 103 -1 6
-2 12 -3 14 -6 7 -5 87 1 87 4 0 3 14 -2 30 -5 18 -5 30 0 30 6 0 6 9 1 23 -5
12 -5 31 -1 43 5 11 4 27 0 34 -5 8 -4 22 1 31 6 11 5 20 -1 24 -6 4 -7 12 -1
23 5 9 5 26 1 37 -5 12 -4 28 0 35 5 8 4 22 -1 31 -6 11 -5 20 1 24 6 4 7 13
2 22 -5 8 -6 33 -2 54 4 22 3 42 -1 45 -5 3 -4 14 1 24 14 27 -24 68 -46 49
-11 -9 -14 -9 -14 0 0 8 -5 9 -17 2 -9 -5 -26 -6 -37 -1 -12 4 -30 4 -40 0
-11 -3 -38 -4 -60 0 -23 3 -54 3 -71 0 -16 -4 -40 -3 -52 2 -15 5 -23 4 -23
-3 0 -8 -4 -8 -13 -1 -7 6 -18 8 -24 4 -6 -4 -43 -5 -82 -2 -39 3 -81 2 -95
-1 -13 -4 -29 -3 -36 1 -6 4 -29 4 -50 0 -26 -5 -41 -3 -43 4 -3 6 -8 4 -12
-6z"/>
</g>
</svg>
