<?xml version="1.0" standalone="no"?>
<!DOCTYPE svg PUBLIC "-//W3C//DTD SVG 20010904//EN"
 "http://www.w3.org/TR/2001/REC-SVG-20010904/DTD/svg10.dtd">
<svg version="1.0" xmlns="http://www.w3.org/2000/svg"
 width="848.000000pt" height="848.000000pt" viewBox="0 0 848.000000 848.000000"
 preserveAspectRatio="xMidYMid meet">
<metadata>
Created by potrace 1.11, written by Peter Selinger 2001-2013
</metadata>
<g transform="translate(0.000000,848.000000) scale(0.100000,-0.100000)"
fill="#000000" stroke="none">
<path d="M5515 8200 c-20 -8 -21 -15 -20 -290 0 -155 -2 -286 -6 -291 -4 -7
-27 -5 -65 5 -32 8 -86 20 -119 25 -33 6 -71 13 -85 16 -14 3 -43 7 -65 10
-22 3 -49 7 -60 9 -19 4 -126 14 -240 22 -80 6 -374 5 -445 -1 -36 -3 -90 -8
-121 -10 -31 -2 -69 -6 -85 -9 -16 -2 -49 -8 -74 -12 -25 -4 -56 -8 -70 -10
-24 -3 -92 -15 -155 -29 -16 -3 -57 -13 -90 -22 -33 -8 -71 -17 -85 -19 -14
-3 -34 -8 -45 -11 -11 -4 -22 -8 -25 -8 -3 -1 -12 -4 -20 -8 -37 -14 -216 -70
-227 -70 -7 0 -13 -4 -13 -9 0 -4 -5 -8 -11 -8 -6 0 -25 -6 -42 -14 -18 -7
-57 -24 -87 -36 -91 -37 -278 -129 -285 -140 -3 -5 -15 -10 -26 -10 -10 0 -19
-4 -19 -10 0 -5 -5 -10 -10 -10 -11 0 -137 -77 -243 -149 -38 -25 -76 -50 -85
-56 -8 -5 -22 -16 -31 -23 -9 -7 -41 -32 -71 -55 -30 -23 -60 -46 -66 -52 -6
-5 -33 -28 -59 -50 -192 -160 -453 -440 -555 -595 -8 -13 -24 -35 -36 -49 -11
-14 -29 -41 -39 -58 -11 -18 -23 -33 -27 -33 -4 0 -8 -4 -8 -9 0 -6 -22 -45
-50 -88 -27 -43 -50 -84 -50 -90 0 -7 -3 -13 -7 -13 -5 0 -13 -10 -19 -23 -6
-12 -43 -86 -83 -164 -39 -78 -71 -143 -71 -146 0 -2 -10 -26 -22 -53 -12 -27
-23 -53 -24 -59 -1 -5 -16 -47 -33 -92 -18 -45 -34 -90 -36 -100 -3 -10 -18
-63 -36 -118 -17 -55 -33 -111 -35 -125 -3 -14 -7 -33 -10 -42 -3 -9 -7 -27
-10 -40 -13 -63 -25 -126 -29 -148 -2 -14 -6 -36 -9 -50 -8 -42 -17 -103 -21
-135 -8 -74 -18 -181 -18 -192 0 -10 -27 -13 -96 -14 -53 -1 -100 -1 -104 0
-4 1 -45 1 -90 1 -45 0 -98 0 -117 1 -34 1 -47 1 -73 -3 -10 -1 -13 -54 -13
-240 l1 -238 243 3 c278 2 246 15 257 -103 10 -105 20 -181 31 -245 2 -11 7
-36 10 -55 11 -57 12 -63 24 -115 6 -27 13 -57 15 -65 1 -8 8 -35 15 -60 7
-25 14 -52 15 -60 5 -20 45 -151 52 -170 4 -8 7 -17 7 -20 1 -3 4 -9 7 -15 5
-9 21 -59 23 -75 1 -3 9 -24 18 -45 9 -22 31 -74 49 -115 51 -123 170 -355
219 -430 6 -8 18 -30 27 -47 9 -18 20 -33 25 -33 4 0 8 -5 8 -10 0 -16 180
-268 223 -311 7 -8 20 -24 29 -37 40 -59 261 -287 382 -394 65 -57 250 -202
306 -238 25 -16 50 -33 55 -37 25 -20 164 -107 185 -116 8 -4 38 -20 65 -36
112 -64 357 -181 378 -181 7 0 17 -4 22 -9 9 -8 109 -47 145 -56 8 -2 49 -16
90 -30 41 -14 84 -27 95 -28 11 -2 25 -6 31 -9 6 -4 21 -9 35 -12 32 -8 99
-23 124 -29 11 -3 49 -11 85 -17 36 -7 72 -15 80 -18 8 -2 24 -6 35 -7 31 -3
126 -16 149 -21 19 -4 84 -10 216 -20 64 -5 384 -5 450 1 25 1 77 6 115 10 39
4 84 9 100 10 17 2 30 4 30 5 0 1 14 3 31 5 32 3 88 13 139 23 17 3 40 6 53 6
12 1 22 4 22 7 0 4 17 9 38 12 20 3 51 8 67 12 l30 7 0 -294 0 -293 29 -2 c15
-1 30 -4 33 -6 2 -3 18 -1 36 3 18 4 41 4 52 0 11 -4 33 -3 49 1 16 5 36 4 45
0 8 -5 23 -6 31 -1 9 5 22 5 29 1 7 -5 29 -5 49 0 21 4 43 4 54 -2 12 -7 18
-6 18 1 0 7 6 8 19 1 13 -8 22 -7 28 2 5 7 9 168 8 376 l-1 364 31 18 c16 10
51 26 77 36 27 9 48 21 48 25 0 4 5 8 11 8 15 0 171 79 227 114 23 14 44 26
47 26 7 0 220 137 257 164 15 12 46 35 68 51 191 141 411 347 570 534 25 29
50 58 55 65 76 83 269 370 356 530 62 114 175 358 195 421 2 6 22 62 45 125
22 63 42 122 44 131 2 9 12 47 23 85 19 65 37 138 47 194 5 27 18 90 21 103 1
4 2 8 4 10 2 3 5 23 14 102 4 33 9 74 12 90 33 222 32 637 -1 863 -3 17 -7 48
-10 67 -11 79 -15 101 -20 125 -4 14 -8 34 -9 45 -14 82 -44 204 -78 320 -11
39 -21 75 -23 80 -1 6 -7 23 -13 38 -7 16 -12 32 -12 37 0 5 -7 26 -16 47 -9
21 -20 47 -24 58 -59 163 -204 457 -282 572 -15 23 -28 46 -28 52 0 6 -5 11
-11 11 -5 0 -7 5 -4 10 3 6 2 10 -2 10 -5 0 -17 15 -28 33 -19 33 -180 253
-199 273 -6 6 -26 29 -44 52 -107 131 -331 350 -472 462 -36 28 -72 56 -80 63
-79 62 -248 177 -260 177 -6 0 -10 5 -10 10 0 6 -6 10 -14 10 -8 0 -21 6 -28
13 -35 31 -288 163 -438 228 l-46 20 1 366 c0 396 -1 402 -50 383 -16 -6 -27
-6 -31 1 -3 6 -11 6 -17 1 -12 -8 -29 -8 -72 1 -11 2 -29 1 -40 -3 -11 -4 -29
-4 -40 0 -11 4 -31 4 -45 0 -14 -4 -34 -4 -45 0 -11 4 -29 4 -40 0 -11 -4 -29
-4 -40 0 -11 4 -29 4 -40 0z"/>
</g>
</svg>
